<!-- Generator: Adobe Illustrator 22.0.1, SVG Export Plug-In  -->
<svg version="1.1"
	 xmlns="http://www.w3.org/2000/svg" xmlns:xlink="http://www.w3.org/1999/xlink" xmlns:a="http://ns.adobe.com/AdobeSVGViewerExtensions/3.0/"
	 x="0px" y="0px" width="572.6px" height="217.1px" viewBox="0 0 572.6 217.1"
	 style="overflow:scroll;enable-background:new 0 0 572.6 217.1;" xml:space="preserve">
<defs>
</defs>
<g>
	<path d="M0,153.5c8.7-9.5,17.5-18.9,26.3-28.3l26.5-28.1L79.3,69l26.6-28c1.9-2,5-2.1,7-0.2c0.5,0.5,0.9,1.1,1.2,1.7l0.1,0.3
		l16,40.6l15.9,40.7l15.8,40.7l15.7,40.8l-15.1-1.5c9.8-16.7,19.7-33.3,29.6-49.9l29.8-49.8l29.9-49.8l30-49.7
		c3-4.9,9.3-6.5,14.2-3.5c2.4,1.5,4.1,3.8,4.7,6.4l0,0.1l11,45l11,45l10.9,45l10.8,45.1l-18.8-2.6l19.1-33.8l19.2-33.7l19.3-33.7
		l19.3-33.6l0.1-0.2c2.4-4.2,7.9-5.7,12.1-3.3c2,1.2,3.4,3,4.1,5.1l20.3,67.6l10.1,33.8l10,33.8l-11.9-1.6l31-46.4l31.2-46.3
		c10.4-15.4,20.9-30.8,31.4-46.1l7.9-11.5l7.9-11.5l15.9-22.9l-14,24.1l-7,12.1l-7.1,12c-9.5,16-18.9,32.1-28.4,48l-28.7,47.9
		l-28.9,47.7c-1.9,3.1-5.9,4.1-9,2.2c-1.4-0.8-2.3-2.1-2.8-3.5l-0.1-0.3l-11.3-33.4l-11.2-33.4l-22.2-67l16.3,1.7l-18.6,34.1
		l-18.6,34l-18.7,34l-18.8,34c-2.7,4.9-8.9,6.7-13.8,4c-2.6-1.4-4.3-3.8-4.9-6.4l0-0.1l-11.1-45l-11-45l-10.9-45l-10.9-45l19,3
		L269,65.2l-30.6,49.3l-30.7,49.3c-10.2,16.4-20.5,32.8-30.9,49.2l-0.1,0.2c-2.5,3.9-7.6,5.1-11.5,2.6c-1.7-1-2.8-2.6-3.4-4.3
		l-14.4-41.2L133,129l-14.2-41.3l-14.1-41.4l8.3,1.8L84.9,74.7l-28.2,26.4l-28.3,26.3C19,136.1,9.5,144.9,0,153.5z"/>
</g>
</svg>
